# xmcd
#
# Track frame offsets:
#  150
#  17473
#  30495
#  40909
#  62831
#  80611
#  103101
#  119568
#  134748
#  158053
#  175808
#  186034
#  208768
#
# Disc length: 2958 seconds
#
# Revision: 0
# Processed by: cddbd v1.4PL0 Copyright (c) Steve Scherf et al.
# Submitted via: AltoMP3_Maker 3.0
#
DISCID=b10b8c0d
DTITLE=The Original Snakeboy - Playing With Fire
DYEAR=1900
DGENRE=
TTITLE0=Preachin' Blues
TTITLE1=Can't Be Satisfied
TTITLE2=Scratchy
TTITLE3=Spooky Lou
TTITLE4=Travelin' Riverside Blues
TTITLE5=Late On In The Evening
TTITLE6=Nani
TTITLE7=Kauai
TTITLE8=Come On In My Kitchen
TTITLE9=Baby Please Don't Go
TTITLE10=I Used To Kiss Her On The Lips, But ...
TTITLE11=Feel Like Going Home
TTITLE12=Steve James Loves Shortnin' Bread
EXTD=
EXTT0=
EXTT1=
EXTT2=
EXTT3=
EXTT4=
EXTT5=
EXTT6=
EXTT7=
EXTT8=
EXTT9=
EXTT10=
EXTT11=
EXTT12=
PLAYORDER=
